<?xml version="1.0" standalone="no"?><svg xmlns="http://www.w3.org/2000/svg" viewBox="0 0 1440 320"><path fill="#a2d9ff" fill-opacity="0.3" d="M0,256L26.7,229.3C53.3,203,107,149,160,144C213.3,139,267,181,320,213.3C373.3,245,427,267,480,229.3C533.3,192,587,96,640,101.3C693.3,107,747,213,800,256C853.3,299,907,277,960,272C1013.3,267,1067,277,1120,250.7C1173.3,224,1227,160,1280,149.3C1333.3,139,1387,181,1413,202.7L1440,224L1440,0L1413.3,0C1386.7,0,1333,0,1280,0C1226.7,0,1173,0,1120,0C1066.7,0,1013,0,960,0C906.7,0,853,0,800,0C746.7,0,693,0,640,0C586.7,0,533,0,480,0C426.7,0,373,0,320,0C266.7,0,213,0,160,0C106.7,0,53,0,27,0L0,0Z"></path></svg>