<?xml version="1.0" standalone="no"?><svg xmlns="http://www.w3.org/2000/svg" viewBox="0 0 1440 320"><path fill="#0099ff" fill-opacity="1" d="M0,64L26.7,106.7C53.3,149,107,235,160,245.3C213.3,256,267,192,320,170.7C373.3,149,427,171,480,181.3C533.3,192,587,192,640,170.7C693.3,149,747,107,800,117.3C853.3,128,907,192,960,192C1013.3,192,1067,128,1120,138.7C1173.3,149,1227,235,1280,240C1333.3,245,1387,171,1413,133.3L1440,96L1440,320L1413.3,320C1386.7,320,1333,320,1280,320C1226.7,320,1173,320,1120,320C1066.7,320,1013,320,960,320C906.7,320,853,320,800,320C746.7,320,693,320,640,320C586.7,320,533,320,480,320C426.7,320,373,320,320,320C266.7,320,213,320,160,320C106.7,320,53,320,27,320L0,320Z"></path></svg>